<?xml version="1.0" encoding="UTF-8" standalone="no"?>
<svg
   version="1.1"
   width="256"
   height="256"
   viewBox="0 0 256 256"
   xml:space="preserve"
   id="svg46"
   sodipodi:docname="meda_backgroundl.svg"
   inkscape:version="1.2.2 (732a01da63, 2022-12-09)"
   inkscape:export-filename="medal.png"
   inkscape:export-xdpi="67.5"
   inkscape:export-ydpi="67.5"
   xmlns:inkscape="http://www.inkscape.org/namespaces/inkscape"
   xmlns:sodipodi="http://sodipodi.sourceforge.net/DTD/sodipodi-0.dtd"
   xmlns:xlink="http://www.w3.org/1999/xlink"
   xmlns="http://www.w3.org/2000/svg"
   xmlns:svg="http://www.w3.org/2000/svg"><sodipodi:namedview
   id="namedview48"
   pagecolor="#ffffff"
   bordercolor="#666666"
   borderopacity="1.0"
   inkscape:showpageshadow="2"
   inkscape:pageopacity="0.0"
   inkscape:pagecheckerboard="0"
   inkscape:deskcolor="#d1d1d1"
   showgrid="false"
   inkscape:zoom="2.7676601"
   inkscape:cx="139.82931"
   inkscape:cy="182.10328"
   inkscape:window-width="2560"
   inkscape:window-height="1377"
   inkscape:window-x="1912"
   inkscape:window-y="-8"
   inkscape:window-maximized="1"
   inkscape:current-layer="svg46" />

<defs
   id="defs26"><linearGradient
   inkscape:collect="always"
   id="linearGradient1063"><stop
     style="stop-color:#e37e00;stop-opacity:1;"
     offset="0"
     id="stop1059" /><stop
     style="stop-color:#e37e00;stop-opacity:0;"
     offset="1"
     id="stop1061" /></linearGradient>

	
	
	
	
	
	
	
	
<linearGradient
   inkscape:collect="always"
   xlink:href="#linearGradient1063"
   id="linearGradient1065"
   x1="119.91068"
   y1="170.37613"
   x2="120.04944"
   y2="211.4045"
   gradientUnits="userSpaceOnUse"
   gradientTransform="matrix(0.92577447,0,0,0.92577448,4.0194381,-7.9087116)" /></defs>

<path
   style="display:inline;fill:none;stroke:#000000;stroke-width:0.767994px;stroke-linecap:butt;stroke-linejoin:miter;stroke-opacity:1"
   d="m 64.188607,94.257104 c 2.905002,7.791446 17.239103,24.742766 63.447303,24.830556 43.26714,0.0349 62.98163,-14.55342 67.54067,-26.485933"
   id="path2799"
   sodipodi:nodetypes="ccc" /><rect
   style="display:inline;fill:#2196f3;fill-opacity:1;stroke:none;stroke-width:1.13583;stroke-linejoin:bevel;stroke-dasharray:none"
   id="rect10528"
   width="256.17307"
   height="256.53439"
   x="3.0514246e-07"
   y="1.0582494e-06" /><g
   id="g11320"
   transform="translate(-1.3789062e-6,0.36131562)"><path
     d="M 147.41138,38.512643 C 158.0669,30.124793 161.62155,17.757983 158.0669,1.4065934 H 97.646283 C 89.809193,17.406733 91.818343,30.248433 108.3018,38.512643 Z"
     style="fill:#e95454;fill-rule:nonzero;stroke:none;stroke-width:2.81;stroke-linecap:butt;stroke-linejoin:miter;stroke-miterlimit:10;stroke-dasharray:none"
     stroke-linecap="round"
     id="path28" /><polygon
     points="34.25,0 17.75,10.71 25.63,37.49 42.95,30.28 "
     style="fill:#ed6362;fill-rule:nonzero;stroke:none;stroke-width:1;stroke-linecap:butt;stroke-linejoin:miter;stroke-miterlimit:10;stroke-dasharray:none"
     transform="matrix(2.81,0,0,2.81,1.4065934,1.4065934)"
     id="polygon30" /><polygon
     points="72.25,10.71 55.75,0 47.06,30.28 64.37,37.49 "
     style="fill:#ed6362;fill-rule:nonzero;stroke:none;stroke-width:1;stroke-linecap:butt;stroke-linejoin:miter;stroke-miterlimit:10;stroke-dasharray:none"
     transform="matrix(2.81,0,0,2.81,1.4065934,1.4065934)"
     id="polygon32" /><path
     d="m 127.85659,254.30659 c 47.12089,0 85.32003,-38.19914 85.32003,-85.32003 0,-47.12089 -38.19914,-85.322837 -85.32003,-85.322837 -28.108427,58.217577 -30.347997,115.204377 0,170.642867 z"
     style="fill:#ffcc5b;fill-rule:nonzero;stroke:none;stroke-width:2.81;stroke-linecap:butt;stroke-linejoin:miter;stroke-miterlimit:10;stroke-dasharray:none"
     stroke-linecap="round"
     id="path34" /><path
     d="m 127.85659,254.30659 c -47.120887,0 -85.320027,-38.19914 -85.320027,-85.32003 0,-47.12089 38.19914,-85.322837 85.320027,-85.322837 V 254.21948"
     style="fill:#fdbc4b;fill-rule:nonzero;stroke:none;stroke-width:2.81;stroke-linecap:butt;stroke-linejoin:miter;stroke-miterlimit:10;stroke-dasharray:none"
     stroke-linecap="round"
     id="path36" /><path
     d="m 94.987676,239.50001 c -0.413654,0 -0.833978,-0.0787 -1.24096,-0.24298 -17.920522,-7.28593 -32.004748,-21.29656 -39.653996,-39.44809 -7.649249,-18.15495 -7.952817,-38.27769 -0.850657,-56.66193 0.687198,-1.77956 2.645378,-2.64539 4.383389,-1.94384 1.731339,0.705 2.581997,2.71726 1.894799,4.49682 -6.438313,16.66628 -6.164768,34.90679 0.770595,51.3609 6.935364,16.45752 19.698567,29.15401 35.941125,35.75549 1.734675,0.70498 2.581997,2.71726 1.894799,4.49682 -0.523739,1.35863 -1.794721,2.18681 -3.139094,2.18681 z"
     style="fill:#ffa701;fill-opacity:1;fill-rule:nonzero;stroke:none;stroke-width:3.3788;stroke-linecap:butt;stroke-linejoin:miter;stroke-miterlimit:10;stroke-dasharray:none"
     stroke-linecap="round"
     id="path38" /><path
     d="m 195.14932,204.67766 c -0.48706,0 -0.97412,-0.0887 -1.45339,-0.27385 -2.02616,-0.79455 -3.01586,-3.0625 -2.21319,-5.06815 15.51964,-38.77103 -3.71724,-82.81462 -42.88455,-98.18109 -2.02617,-0.79455 -3.01586,-3.062496 -2.21319,-5.06816 0.80267,-2.005664 3.0938,-2.981497 5.11996,-2.190802 43.21185,16.951712 64.43592,65.542762 47.31094,108.317402 -0.61175,1.53125 -2.1002,2.46465 -3.66658,2.46465 z"
     style="fill:#ffb72e;fill-opacity:1;fill-rule:nonzero;stroke:none;stroke-width:3.87671;stroke-linecap:butt;stroke-linejoin:miter;stroke-miterlimit:10;stroke-dasharray:none"
     stroke-linecap="round"
     id="path40" /><text
     xml:space="preserve"
     style="font-style:normal;font-variant:normal;font-weight:900;font-stretch:normal;font-size:53.1792px;line-height:1.25;font-family:Arial;-inkscape-font-specification:'Arial, Heavy';font-variant-ligatures:normal;font-variant-caps:normal;font-variant-numeric:normal;font-variant-east-asian:normal;fill:#e37e00;fill-opacity:1;stroke-width:2.02696;stroke-dasharray:none"
     id="text947"
     y="163.42819"
     x="53.714283"
     transform="scale(0.95197843,1.050444)"><tspan
       sodipodi:role="line"
       id="tspan945"
       x="53.714283"
       y="163.42819"
       style="font-style:normal;font-variant:normal;font-weight:900;font-stretch:normal;font-size:53.1792px;font-family:Arial;-inkscape-font-specification:'Arial, Heavy';font-variant-ligatures:normal;font-variant-caps:normal;font-variant-numeric:normal;font-variant-east-asian:normal;fill:url(#linearGradient1065);fill-opacity:1;stroke-width:2.02696;stroke-dasharray:none">LUDO</tspan></text><text
     xml:space="preserve"
     style="font-style:normal;font-variant:normal;font-weight:bold;font-stretch:condensed;font-size:42.6667px;line-height:1.25;font-family:'Agency FB';-inkscape-font-specification:'Agency FB, Bold Condensed';font-variant-ligatures:normal;font-variant-caps:normal;font-variant-numeric:normal;font-variant-east-asian:normal;fill:#ab6400;fill-opacity:1"
     id="text5819"
     transform="translate(-1.0219561,117.52495)"><textPath
       xlink:href="#path2799"
       id="textPath5845"><tspan
         id="tspan5817"
         style="font-style:normal;font-variant:normal;font-weight:bold;font-stretch:condensed;font-size:42.6667px;font-family:'Agency FB';-inkscape-font-specification:'Agency FB, Bold Condensed';font-variant-ligatures:normal;font-variant-caps:normal;font-variant-numeric:normal;font-variant-east-asian:normal;fill:#ab6400;fill-opacity:1">S  C O R  E</tspan></textPath></text></g></svg>
